<?xml version="1.0" encoding="UTF-8" standalone="no"?><svg xmlns="http://www.w3.org/2000/svg" xmlns:xlink="http://www.w3.org/1999/xlink" contentScriptType="application/ecmascript" contentStyleType="text/css" height="1606px" preserveAspectRatio="none" style="width:928px;height:1606px;" version="1.1" viewBox="0 0 928 1606" width="928px" zoomAndPan="magnify"><defs><filter height="300%" id="f21efjv5z2hv" width="300%" x="-1" y="-1"><feGaussianBlur result="blurOut" stdDeviation="2.0"/><feColorMatrix in="blurOut" result="blurOut2" type="matrix" values="0 0 0 0 0 0 0 0 0 0 0 0 0 0 0 0 0 0 .4 0"/><feOffset dx="4.0" dy="4.0" in="blurOut2" result="blurOut3"/><feBlend in="SourceGraphic" in2="blurOut3" mode="normal"/></filter></defs><g><text fill="#000000" font-family="sans-serif" font-size="18" lengthAdjust="spacingAndGlyphs" textLength="343" x="291.75" y="27.4023">A Roadmap for Programming Beginners</text><path d="M491.5,31.1992 L491.5,56.5098 L659.5,56.5098 L659.5,41.1992 L649.5,31.1992 L491.5,31.1992 " fill="#00FFFF" filter="url(#f21efjv5z2hv)" style="stroke: #A80036; stroke-width: 1.0;"/><path d="M649.5,31.1992 L649.5,41.1992 L659.5,41.1992 L649.5,31.1992 " fill="#00FFFF" style="stroke: #A80036; stroke-width: 1.0;"/><text fill="#000000" font-family="sans-serif" font-size="13" lengthAdjust="spacingAndGlyphs" textLength="147" x="497.5" y="48.7676">Programming Concepts</text><path d="M480.5,76.5098 L480.5,101.8203 L670.5,101.8203 L670.5,86.5098 L660.5,76.5098 L480.5,76.5098 " fill="#FFC0CB" filter="url(#f21efjv5z2hv)" style="stroke: #A80036; stroke-width: 1.0;"/><path d="M660.5,76.5098 L660.5,86.5098 L670.5,86.5098 L660.5,76.5098 " fill="#FFC0CB" style="stroke: #A80036; stroke-width: 1.0;"/><text fill="#000000" font-family="sans-serif" font-size="13" lengthAdjust="spacingAndGlyphs" textLength="169" x="486.5" y="94.0781">General Programming Stuff</text><ellipse cx="460.5" cy="66.5098" fill="#000000" filter="url(#f21efjv5z2hv)" rx="10" ry="10" style="stroke: none; stroke-width: 1.0;"/><rect fill="#000000" filter="url(#f21efjv5z2hv)" height="6" rx="2.5" ry="2.5" style="stroke: #000000; stroke-width: 1.0;" width="639.5" x="141.5" y="121.8203"/><rect fill="#00FFFF" filter="url(#f21efjv5z2hv)" height="34.1328" rx="12.5" ry="12.5" style="stroke: #A80036; stroke-width: 1.5;" width="127" x="154" y="147.8203"/><text fill="#000000" font-family="sans-serif" font-size="12" lengthAdjust="spacingAndGlyphs" textLength="107" x="164" y="169.4219">Basic Input/Output</text><rect fill="#00FFFF" filter="url(#f21efjv5z2hv)" height="34.1328" rx="12.5" ry="12.5" style="stroke: #A80036; stroke-width: 1.5;" width="74" x="309" y="147.8203"/><a href="https://www.khanacademy.org/computing/ap-computer-science-principles/programming-101/storing-variables/a/assigning-variables" target="_top" title="https://www.khanacademy.org/computing/ap-computer-science-principles/programming-101/storing-variables/a/assigning-variables" xlink:actuate="onRequest" xlink:href="https://www.khanacademy.org/computing/ap-computer-science-principles/programming-101/storing-variables/a/assigning-variables" xlink:show="new" xlink:title="https://www.khanacademy.org/computing/ap-computer-science-principles/programming-101/storing-variables/a/assigning-variables" xlink:type="simple"><text fill="#0000FF" font-family="sans-serif" font-size="12" lengthAdjust="spacingAndGlyphs" text-decoration="underline" textLength="54" x="319" y="169.4219">Variables</text></a><rect fill="#00FFFF" filter="url(#f21efjv5z2hv)" height="34.1328" rx="12.5" ry="12.5" style="stroke: #A80036; stroke-width: 1.5;" width="88" x="411" y="147.8203"/><text fill="#000000" font-family="sans-serif" font-size="12" lengthAdjust="spacingAndGlyphs" textLength="68" x="421" y="169.4219">Basic Types</text><rect fill="#00FFFF" filter="url(#f21efjv5z2hv)" height="34.1328" rx="12.5" ry="12.5" style="stroke: #A80036; stroke-width: 1.5;" width="131" x="527" y="147.8203"/><text fill="#000000" font-family="sans-serif" font-size="12" lengthAdjust="spacingAndGlyphs" textLength="111" x="537" y="169.4219">Naming Convention</text><rect fill="#FFC0CB" filter="url(#f21efjv5z2hv)" height="34.1328" rx="12.5" ry="12.5" style="stroke: #A80036; stroke-width: 1.5;" width="81" x="686" y="147.8203"/><a href="https://en.wikipedia.org/wiki/Comment_(computer_programming)" target="_top" title="https://en.wikipedia.org/wiki/Comment_(computer_programming)" xlink:actuate="onRequest" xlink:href="https://en.wikipedia.org/wiki/Comment_(computer_programming)" xlink:show="new" xlink:title="https://en.wikipedia.org/wiki/Comment_(computer_programming)" xlink:type="simple"><text fill="#0000FF" font-family="sans-serif" font-size="12" lengthAdjust="spacingAndGlyphs" text-decoration="underline" textLength="61" x="696" y="169.4219">Comments</text></a><rect fill="#000000" filter="url(#f21efjv5z2hv)" height="6" rx="2.5" ry="2.5" style="stroke: #000000; stroke-width: 1.0;" width="639.5" x="141.5" y="201.9531"/><rect fill="#000000" filter="url(#f21efjv5z2hv)" height="6" rx="2.5" ry="2.5" style="stroke: #000000; stroke-width: 1.0;" width="230" x="345.5" y="227.9531"/><rect fill="#00FFFF" filter="url(#f21efjv5z2hv)" height="34.1328" rx="12.5" ry="12.5" style="stroke: #A80036; stroke-width: 1.5;" width="90" x="359.5" y="253.9531"/><a href="https://en.wikipedia.org/wiki/Conditional_(computer_programming)" target="_top" title="https://en.wikipedia.org/wiki/Conditional_(computer_programming)" xlink:actuate="onRequest" xlink:href="https://en.wikipedia.org/wiki/Conditional_(computer_programming)" xlink:show="new" xlink:title="https://en.wikipedia.org/wiki/Conditional_(computer_programming)" xlink:type="simple"><text fill="#0000FF" font-family="sans-serif" font-size="12" lengthAdjust="spacingAndGlyphs" text-decoration="underline" textLength="70" x="369.5" y="275.5547">Conditionals</text></a><rect fill="#00FFFF" filter="url(#f21efjv5z2hv)" height="34.1328" rx="12.5" ry="12.5" style="stroke: #A80036; stroke-width: 1.5;" width="84" x="477.5" y="253.9531"/><a href="https://developers.slashdot.org/story/20/06/20/0358229/david-heinemeier-hansson-explains-what-it-takes-to-write-great-code" target="_top" title="https://developers.slashdot.org/story/20/06/20/0358229/david-heinemeier-hansson-explains-what-it-takes-to-write-great-code" xlink:actuate="onRequest" xlink:href="https://developers.slashdot.org/story/20/06/20/0358229/david-heinemeier-hansson-explains-what-it-takes-to-write-great-code" xlink:show="new" xlink:title="https://developers.slashdot.org/story/20/06/20/0358229/david-heinemeier-hansson-explains-what-it-takes-to-write-great-code" xlink:type="simple"><text fill="#0000FF" font-family="sans-serif" font-size="12" lengthAdjust="spacingAndGlyphs" text-decoration="underline" textLength="64" x="487.5" y="275.5547">Indentation</text></a><rect fill="#000000" filter="url(#f21efjv5z2hv)" height="6" rx="2.5" ry="2.5" style="stroke: #000000; stroke-width: 1.0;" width="230" x="345.5" y="308.0859"/><rect fill="#000000" filter="url(#f21efjv5z2hv)" height="6" rx="2.5" ry="2.5" style="stroke: #000000; stroke-width: 1.0;" width="350" x="285.5" y="334.0859"/><rect fill="#00FFFF" filter="url(#f21efjv5z2hv)" height="34.1328" rx="12.5" ry="12.5" style="stroke: #A80036; stroke-width: 1.5;" width="54" x="299.5" y="394.6523"/><text fill="#000000" font-family="sans-serif" font-size="12" lengthAdjust="spacingAndGlyphs" textLength="34" x="309.5" y="416.2539">Loops</text><rect fill="#00FFFF" filter="url(#f21efjv5z2hv)" height="34.1328" rx="12.5" ry="12.5" style="stroke: #A80036; stroke-width: 1.5;" width="63" x="384" y="360.0859"/><text fill="#000000" font-family="sans-serif" font-size="12" lengthAdjust="spacingAndGlyphs" textLength="43" x="394" y="381.6875">Vectors</text><rect fill="#00FFFF" filter="url(#f21efjv5z2hv)" height="34.1328" rx="12.5" ry="12.5" style="stroke: #A80036; stroke-width: 1.5;" width="68" x="381.5" y="429.2188"/><text fill="#000000" font-family="sans-serif" font-size="12" lengthAdjust="spacingAndGlyphs" textLength="48" x="391.5" y="450.8203">Matrices</text><rect fill="#00FFFF" filter="url(#f21efjv5z2hv)" height="34.1328" rx="12.5" ry="12.5" style="stroke: #A80036; stroke-width: 1.5;" width="144" x="477.5" y="394.6523"/><text fill="#000000" font-family="sans-serif" font-size="12" lengthAdjust="spacingAndGlyphs" textLength="124" x="487.5" y="416.2539">Records (User Types)</text><rect fill="#000000" filter="url(#f21efjv5z2hv)" height="6" rx="2.5" ry="2.5" style="stroke: #000000; stroke-width: 1.0;" width="350" x="285.5" y="483.3516"/><rect fill="#000000" filter="url(#f21efjv5z2hv)" height="6" rx="2.5" ry="2.5" style="stroke: #000000; stroke-width: 1.0;" width="338" x="291.5" y="509.3516"/><rect fill="#00FFFF" filter="url(#f21efjv5z2hv)" height="34.1328" rx="12.5" ry="12.5" style="stroke: #A80036; stroke-width: 1.5;" width="73" x="305.5" y="535.3516"/><text fill="#000000" font-family="sans-serif" font-size="12" lengthAdjust="spacingAndGlyphs" textLength="53" x="315.5" y="556.9531">Functions</text><rect fill="#00FFFF" filter="url(#f21efjv5z2hv)" height="34.1328" rx="12.5" ry="12.5" style="stroke: #A80036; stroke-width: 1.5;" width="61" x="311.5" y="604.4844"/><text fill="#000000" font-family="sans-serif" font-size="12" lengthAdjust="spacingAndGlyphs" textLength="41" x="321.5" y="626.0859">Macros</text><rect fill="#00FFFF" filter="url(#f21efjv5z2hv)" height="34.1328" rx="12.5" ry="12.5" style="stroke: #A80036; stroke-width: 1.5;" width="127" x="406.5" y="569.918"/><text fill="#000000" font-family="sans-serif" font-size="12" lengthAdjust="spacingAndGlyphs" textLength="107" x="416.5" y="591.5195">Parameter Passing</text><rect fill="#00FFFF" filter="url(#f21efjv5z2hv)" height="34.1328" rx="12.5" ry="12.5" style="stroke: #A80036; stroke-width: 1.5;" width="54" x="561.5" y="569.918"/><text fill="#000000" font-family="sans-serif" font-size="12" lengthAdjust="spacingAndGlyphs" textLength="34" x="571.5" y="591.5195">Scope</text><rect fill="#000000" filter="url(#f21efjv5z2hv)" height="6" rx="2.5" ry="2.5" style="stroke: #000000; stroke-width: 1.0;" width="338" x="291.5" y="658.6172"/><rect fill="#000000" filter="url(#f21efjv5z2hv)" height="6" rx="2.5" ry="2.5" style="stroke: #000000; stroke-width: 1.0;" width="583" x="169" y="684.6172"/><rect fill="#00FFFF" filter="url(#f21efjv5z2hv)" height="34.1328" rx="12.5" ry="12.5" style="stroke: #A80036; stroke-width: 1.5;" width="76" x="183" y="710.6172"/><a href="https://en.wikipedia.org/wiki/Recursion_(computer_science)" target="_top" title="https://en.wikipedia.org/wiki/Recursion_(computer_science)" xlink:actuate="onRequest" xlink:href="https://en.wikipedia.org/wiki/Recursion_(computer_science)" xlink:show="new" xlink:title="https://en.wikipedia.org/wiki/Recursion_(computer_science)" xlink:type="simple"><text fill="#0000FF" font-family="sans-serif" font-size="12" lengthAdjust="spacingAndGlyphs" text-decoration="underline" textLength="56" x="193" y="732.2188">Recursion</text></a><rect fill="#00FFFF" filter="url(#f21efjv5z2hv)" height="34.1328" rx="12.5" ry="12.5" style="stroke: #A80036; stroke-width: 1.5;" width="128" x="287" y="710.6172"/><text fill="#000000" font-family="sans-serif" font-size="12" lengthAdjust="spacingAndGlyphs" textLength="108" x="297" y="732.2188">Dynamic Allocation</text><rect fill="#00FFFF" filter="url(#f21efjv5z2hv)" height="34.1328" rx="12.5" ry="12.5" style="stroke: #A80036; stroke-width: 1.5;" width="209" x="443" y="710.6172"/><text fill="#000000" font-family="sans-serif" font-size="12" lengthAdjust="spacingAndGlyphs" textLength="189" x="453" y="732.2188">Sorting and Searching Algorithms</text><rect fill="#FFC0CB" filter="url(#f21efjv5z2hv)" height="34.1328" rx="12.5" ry="12.5" style="stroke: #A80036; stroke-width: 1.5;" width="58" x="680" y="710.6172"/><a href="https://en.wikipedia.org/wiki/Debugging" target="_top" title="https://en.wikipedia.org/wiki/Debugging" xlink:actuate="onRequest" xlink:href="https://en.wikipedia.org/wiki/Debugging" xlink:show="new" xlink:title="https://en.wikipedia.org/wiki/Debugging" xlink:type="simple"><text fill="#0000FF" font-family="sans-serif" font-size="12" lengthAdjust="spacingAndGlyphs" text-decoration="underline" textLength="38" x="690" y="732.2188">Debug</text></a><rect fill="#000000" filter="url(#f21efjv5z2hv)" height="6" rx="2.5" ry="2.5" style="stroke: #000000; stroke-width: 1.0;" width="583" x="169" y="764.75"/><rect fill="#000000" filter="url(#f21efjv5z2hv)" height="6" rx="2.5" ry="2.5" style="stroke: #000000; stroke-width: 1.0;" width="310" x="305.5" y="790.75"/><rect fill="#00FFFF" filter="url(#f21efjv5z2hv)" height="34.1328" rx="12.5" ry="12.5" style="stroke: #A80036; stroke-width: 1.5;" width="123" x="319.5" y="816.75"/><text fill="#000000" font-family="sans-serif" font-size="12" lengthAdjust="spacingAndGlyphs" textLength="103" x="329.5" y="838.3516">Files Input/Output</text><rect fill="#00FFFF" filter="url(#f21efjv5z2hv)" height="34.1328" rx="12.5" ry="12.5" style="stroke: #A80036; stroke-width: 1.5;" width="131" x="470.5" y="816.75"/><text fill="#000000" font-family="sans-serif" font-size="12" lengthAdjust="spacingAndGlyphs" textLength="111" x="480.5" y="838.3516">Exception Handling</text><rect fill="#000000" filter="url(#f21efjv5z2hv)" height="6" rx="2.5" ry="2.5" style="stroke: #000000; stroke-width: 1.0;" width="310" x="305.5" y="870.8828"/><rect fill="#00FFFF" filter="url(#f21efjv5z2hv)" height="34.1328" rx="12.5" ry="12.5" style="stroke: #A80036; stroke-width: 1.5;" width="180" x="370.5" y="896.8828"/><text fill="#000000" font-family="sans-serif" font-size="12" lengthAdjust="spacingAndGlyphs" textLength="160" x="380.5" y="918.4844">Lists, Stacks, Trees, Graphs</text><rect fill="#000000" filter="url(#f21efjv5z2hv)" height="6" rx="2.5" ry="2.5" style="stroke: #000000; stroke-width: 1.0;" width="372" x="274.5" y="951.0156"/><rect fill="#00FFFF" filter="url(#f21efjv5z2hv)" height="34.1328" rx="12.5" ry="12.5" style="stroke: #A80036; stroke-width: 1.5;" width="138" x="288.5" y="977.0156"/><text fill="#000000" font-family="sans-serif" font-size="12" lengthAdjust="spacingAndGlyphs" textLength="118" x="298.5" y="998.6172">Abstract Data Types</text><rect fill="#00FFFF" filter="url(#f21efjv5z2hv)" height="34.1328" rx="12.5" ry="12.5" style="stroke: #A80036; stroke-width: 1.5;" width="44" x="454.5" y="977.0156"/><text fill="#000000" font-family="sans-serif" font-size="12" lengthAdjust="spacingAndGlyphs" textLength="24" x="464.5" y="998.6172">APIs</text><rect fill="#FFC0CB" filter="url(#f21efjv5z2hv)" height="34.1328" rx="12.5" ry="12.5" style="stroke: #A80036; stroke-width: 1.5;" width="106" x="526.5" y="977.0156"/><a href="https://www.doxygen.nl/index.html" target="_top" title="https://www.doxygen.nl/index.html" xlink:actuate="onRequest" xlink:href="https://www.doxygen.nl/index.html" xlink:show="new" xlink:title="https://www.doxygen.nl/index.html" xlink:type="simple"><text fill="#0000FF" font-family="sans-serif" font-size="12" lengthAdjust="spacingAndGlyphs" text-decoration="underline" textLength="86" x="536.5" y="998.6172">Documentation</text></a><rect fill="#000000" filter="url(#f21efjv5z2hv)" height="6" rx="2.5" ry="2.5" style="stroke: #000000; stroke-width: 1.0;" width="372" x="274.5" y="1031.1484"/><rect fill="#000000" filter="url(#f21efjv5z2hv)" height="6" rx="2.5" ry="2.5" style="stroke: #000000; stroke-width: 1.0;" width="206" x="357.5" y="1057.1484"/><rect fill="#00FFFF" filter="url(#f21efjv5z2hv)" height="34.1328" rx="12.5" ry="12.5" style="stroke: #A80036; stroke-width: 1.5;" width="70" x="371.5" y="1083.1484"/><text fill="#000000" font-family="sans-serif" font-size="12" lengthAdjust="spacingAndGlyphs" textLength="50" x="381.5" y="1104.75">Libraries</text><rect fill="#FFC0CB" filter="url(#f21efjv5z2hv)" height="34.1328" rx="12.5" ry="12.5" style="stroke: #A80036; stroke-width: 1.5;" width="80" x="469.5" y="1083.1484"/><a href="https://git-scm.com/book/en/v2/Getting-Started-About-Version-Control" target="_top" title="https://git-scm.com/book/en/v2/Getting-Started-About-Version-Control" xlink:actuate="onRequest" xlink:href="https://git-scm.com/book/en/v2/Getting-Started-About-Version-Control" xlink:show="new" xlink:title="https://git-scm.com/book/en/v2/Getting-Started-About-Version-Control" xlink:type="simple"><text fill="#0000FF" font-family="sans-serif" font-size="12" lengthAdjust="spacingAndGlyphs" text-decoration="underline" textLength="60" x="479.5" y="1104.75">Versioning</text></a><rect fill="#000000" filter="url(#f21efjv5z2hv)" height="6" rx="2.5" ry="2.5" style="stroke: #000000; stroke-width: 1.0;" width="206" x="357.5" y="1137.2813"/><rect fill="#00FFFF" filter="url(#f21efjv5z2hv)" height="34.1328" rx="12.5" ry="12.5" style="stroke: #A80036; stroke-width: 1.5;" width="87" x="417" y="1163.2813"/><text fill="#000000" font-family="sans-serif" font-size="12" lengthAdjust="spacingAndGlyphs" textLength="67" x="427" y="1184.8828">Dictionaries</text><rect fill="#00FFFF" filter="url(#f21efjv5z2hv)" height="34.1328" rx="12.5" ry="12.5" style="stroke: #A80036; stroke-width: 1.5;" width="68" x="426.5" y="1217.4141"/><text fill="#000000" font-family="sans-serif" font-size="12" lengthAdjust="spacingAndGlyphs" textLength="48" x="436.5" y="1239.0156">Iterators</text><rect fill="#00FFFF" filter="url(#f21efjv5z2hv)" height="34.1328" rx="12.5" ry="12.5" style="stroke: #A80036; stroke-width: 1.5;" width="137" x="392" y="1271.5469"/><a href="https://regexr.com/" target="_top" title="https://regexr.com/" xlink:actuate="onRequest" xlink:href="https://regexr.com/" xlink:show="new" xlink:title="https://regexr.com/" xlink:type="simple"><text fill="#0000FF" font-family="sans-serif" font-size="12" lengthAdjust="spacingAndGlyphs" text-decoration="underline" textLength="117" x="402" y="1293.1484">Regular Expressions</text></a><rect fill="#000000" filter="url(#f21efjv5z2hv)" height="6" rx="2.5" ry="2.5" style="stroke: #000000; stroke-width: 1.0;" width="900.5" x="11" y="1325.6797"/><rect fill="#00FFFF" filter="url(#f21efjv5z2hv)" height="34.1328" rx="12.5" ry="12.5" style="stroke: #A80036; stroke-width: 1.5;" width="121" x="23" y="1386.2461"/><text fill="#000000" font-family="sans-serif" font-size="12" lengthAdjust="spacingAndGlyphs" textLength="101" x="33" y="1407.8477">GUI Programming</text><rect fill="#00FFFF" filter="url(#f21efjv5z2hv)" height="34.1328" rx="12.5" ry="12.5" style="stroke: #A80036; stroke-width: 1.5;" width="158" x="170.5" y="1386.2461"/><text fill="#000000" font-family="sans-serif" font-size="12" lengthAdjust="spacingAndGlyphs" textLength="138" x="180.5" y="1407.8477">Functional Programming</text><rect fill="#00FFFF" filter="url(#f21efjv5z2hv)" height="34.1328" rx="12.5" ry="12.5" style="stroke: #A80036; stroke-width: 1.5;" width="193" x="356.5" y="1386.2461"/><text fill="#000000" font-family="sans-serif" font-size="12" lengthAdjust="spacingAndGlyphs" textLength="173" x="366.5" y="1407.8477">Object Oriented Programming</text><rect fill="#00FFFF" filter="url(#f21efjv5z2hv)" height="34.1328" rx="12.5" ry="12.5" style="stroke: #A80036; stroke-width: 1.5;" width="75" x="622" y="1351.6797"/><a href="https://en.wikipedia.org/wiki/Coroutine" target="_top" title="https://en.wikipedia.org/wiki/Coroutine" xlink:actuate="onRequest" xlink:href="https://en.wikipedia.org/wiki/Coroutine" xlink:show="new" xlink:title="https://en.wikipedia.org/wiki/Coroutine" xlink:type="simple"><text fill="#0000FF" font-family="sans-serif" font-size="12" lengthAdjust="spacingAndGlyphs" text-decoration="underline" textLength="55" x="632" y="1373.2813">Coroutine</text></a><rect fill="#00FFFF" filter="url(#f21efjv5z2hv)" height="34.1328" rx="12.5" ry="12.5" style="stroke: #A80036; stroke-width: 1.5;" width="164" x="577.5" y="1420.8125"/><text fill="#000000" font-family="sans-serif" font-size="12" lengthAdjust="spacingAndGlyphs" textLength="144" x="587.5" y="1442.4141">Concurrent Programming</text><rect fill="#00FFFF" filter="url(#f21efjv5z2hv)" height="34.1328" rx="12.5" ry="12.5" style="stroke: #A80036; stroke-width: 1.5;" width="130" x="769.5" y="1386.2461"/><text fill="#000000" font-family="sans-serif" font-size="12" lengthAdjust="spacingAndGlyphs" textLength="110" x="779.5" y="1407.8477">Logic Programming</text><rect fill="#000000" filter="url(#f21efjv5z2hv)" height="6" rx="2.5" ry="2.5" style="stroke: #000000; stroke-width: 1.0;" width="900.5" x="11" y="1474.9453"/><rect fill="#00FFFF" filter="url(#f21efjv5z2hv)" height="34.1328" rx="12.5" ry="12.5" style="stroke: #A80036; stroke-width: 1.5;" width="67" x="427" y="1500.9453"/><text fill="#000000" font-family="sans-serif" font-size="12" lengthAdjust="spacingAndGlyphs" textLength="47" x="437" y="1522.5469">Patterns</text><rect fill="#00FFFF" filter="url(#f21efjv5z2hv)" height="34.1328" rx="12.5" ry="12.5" style="stroke: #A80036; stroke-width: 1.5;" width="94" x="413.5" y="1555.0781"/><text fill="#000000" font-family="sans-serif" font-size="12" lengthAdjust="spacingAndGlyphs" textLength="74" x="423.5" y="1576.6797">And so on ...</text><line style="stroke: #A80036; stroke-width: 1.5;" x1="217.5" x2="217.5" y1="127.8203" y2="147.8203"/><polygon fill="#A80036" points="213.5,137.8203,217.5,147.8203,221.5,137.8203,217.5,141.8203" style="stroke: #A80036; stroke-width: 1.0;"/><line style="stroke: #A80036; stroke-width: 1.5;" x1="346" x2="346" y1="127.8203" y2="147.8203"/><polygon fill="#A80036" points="342,137.8203,346,147.8203,350,137.8203,346,141.8203" style="stroke: #A80036; stroke-width: 1.0;"/><line style="stroke: #A80036; stroke-width: 1.5;" x1="455" x2="455" y1="127.8203" y2="147.8203"/><polygon fill="#A80036" points="451,137.8203,455,147.8203,459,137.8203,455,141.8203" style="stroke: #A80036; stroke-width: 1.0;"/><line style="stroke: #A80036; stroke-width: 1.5;" x1="592.5" x2="592.5" y1="127.8203" y2="147.8203"/><polygon fill="#A80036" points="588.5,137.8203,592.5,147.8203,596.5,137.8203,592.5,141.8203" style="stroke: #A80036; stroke-width: 1.0;"/><line style="stroke: #A80036; stroke-width: 1.5;" x1="726.5" x2="726.5" y1="127.8203" y2="147.8203"/><polygon fill="#A80036" points="722.5,137.8203,726.5,147.8203,730.5,137.8203,726.5,141.8203" style="stroke: #A80036; stroke-width: 1.0;"/><line style="stroke: #A80036; stroke-width: 1.5;" x1="217.5" x2="217.5" y1="181.9531" y2="201.9531"/><polygon fill="#A80036" points="213.5,191.9531,217.5,201.9531,221.5,191.9531,217.5,195.9531" style="stroke: #A80036; stroke-width: 1.0;"/><line style="stroke: #A80036; stroke-width: 1.5;" x1="346" x2="346" y1="181.9531" y2="201.9531"/><polygon fill="#A80036" points="342,191.9531,346,201.9531,350,191.9531,346,195.9531" style="stroke: #A80036; stroke-width: 1.0;"/><line style="stroke: #A80036; stroke-width: 1.5;" x1="455" x2="455" y1="181.9531" y2="201.9531"/><polygon fill="#A80036" points="451,191.9531,455,201.9531,459,191.9531,455,195.9531" style="stroke: #A80036; stroke-width: 1.0;"/><line style="stroke: #A80036; stroke-width: 1.5;" x1="592.5" x2="592.5" y1="181.9531" y2="201.9531"/><polygon fill="#A80036" points="588.5,191.9531,592.5,201.9531,596.5,191.9531,592.5,195.9531" style="stroke: #A80036; stroke-width: 1.0;"/><line style="stroke: #A80036; stroke-width: 1.5;" x1="726.5" x2="726.5" y1="181.9531" y2="201.9531"/><polygon fill="#A80036" points="722.5,191.9531,726.5,201.9531,730.5,191.9531,726.5,195.9531" style="stroke: #A80036; stroke-width: 1.0;"/><line style="stroke: #A80036; stroke-width: 1.5;" x1="460.5" x2="460.5" y1="76.5098" y2="121.8203"/><polygon fill="#A80036" points="456.5,111.8203,460.5,121.8203,464.5,111.8203,460.5,115.8203" style="stroke: #A80036; stroke-width: 1.0;"/><line style="stroke: #A80036; stroke-width: 1.5;" x1="404.5" x2="404.5" y1="233.9531" y2="253.9531"/><polygon fill="#A80036" points="400.5,243.9531,404.5,253.9531,408.5,243.9531,404.5,247.9531" style="stroke: #A80036; stroke-width: 1.0;"/><line style="stroke: #A80036; stroke-width: 1.5;" x1="519.5" x2="519.5" y1="233.9531" y2="253.9531"/><polygon fill="#A80036" points="515.5,243.9531,519.5,253.9531,523.5,243.9531,519.5,247.9531" style="stroke: #A80036; stroke-width: 1.0;"/><line style="stroke: #A80036; stroke-width: 1.5;" x1="404.5" x2="404.5" y1="288.0859" y2="308.0859"/><polygon fill="#A80036" points="400.5,298.0859,404.5,308.0859,408.5,298.0859,404.5,302.0859" style="stroke: #A80036; stroke-width: 1.0;"/><line style="stroke: #A80036; stroke-width: 1.5;" x1="519.5" x2="519.5" y1="288.0859" y2="308.0859"/><polygon fill="#A80036" points="515.5,298.0859,519.5,308.0859,523.5,298.0859,519.5,302.0859" style="stroke: #A80036; stroke-width: 1.0;"/><line style="stroke: #A80036; stroke-width: 1.5;" x1="460.5" x2="460.5" y1="207.9531" y2="227.9531"/><polygon fill="#A80036" points="456.5,217.9531,460.5,227.9531,464.5,217.9531,460.5,221.9531" style="stroke: #A80036; stroke-width: 1.0;"/><line style="stroke: #A80036; stroke-width: 1.5;" x1="415.5" x2="415.5" y1="394.2188" y2="429.2188"/><polygon fill="#A80036" points="411.5,419.2188,415.5,429.2188,419.5,419.2188,415.5,423.2188" style="stroke: #A80036; stroke-width: 1.0;"/><line style="stroke: #A80036; stroke-width: 1.5;" x1="326.5" x2="326.5" y1="340.0859" y2="394.6523"/><polygon fill="#A80036" points="322.5,384.6523,326.5,394.6523,330.5,384.6523,326.5,388.6523" style="stroke: #A80036; stroke-width: 1.0;"/><line style="stroke: #A80036; stroke-width: 1.5;" x1="415.5" x2="415.5" y1="340.0859" y2="360.0859"/><polygon fill="#A80036" points="411.5,350.0859,415.5,360.0859,419.5,350.0859,415.5,354.0859" style="stroke: #A80036; stroke-width: 1.0;"/><line style="stroke: #A80036; stroke-width: 1.5;" x1="549.5" x2="549.5" y1="340.0859" y2="394.6523"/><polygon fill="#A80036" points="545.5,384.6523,549.5,394.6523,553.5,384.6523,549.5,388.6523" style="stroke: #A80036; stroke-width: 1.0;"/><line style="stroke: #A80036; stroke-width: 1.5;" x1="326.5" x2="326.5" y1="428.7852" y2="483.3516"/><polygon fill="#A80036" points="322.5,473.3516,326.5,483.3516,330.5,473.3516,326.5,477.3516" style="stroke: #A80036; stroke-width: 1.0;"/><line style="stroke: #A80036; stroke-width: 1.5;" x1="415.5" x2="415.5" y1="463.3516" y2="483.3516"/><polygon fill="#A80036" points="411.5,473.3516,415.5,483.3516,419.5,473.3516,415.5,477.3516" style="stroke: #A80036; stroke-width: 1.0;"/><line style="stroke: #A80036; stroke-width: 1.5;" x1="549.5" x2="549.5" y1="428.7852" y2="483.3516"/><polygon fill="#A80036" points="545.5,473.3516,549.5,483.3516,553.5,473.3516,549.5,477.3516" style="stroke: #A80036; stroke-width: 1.0;"/><line style="stroke: #A80036; stroke-width: 1.5;" x1="460.5" x2="460.5" y1="314.0859" y2="334.0859"/><polygon fill="#A80036" points="456.5,324.0859,460.5,334.0859,464.5,324.0859,460.5,328.0859" style="stroke: #A80036; stroke-width: 1.0;"/><line style="stroke: #A80036; stroke-width: 1.5;" x1="342" x2="342" y1="569.4844" y2="604.4844"/><polygon fill="#A80036" points="338,594.4844,342,604.4844,346,594.4844,342,598.4844" style="stroke: #A80036; stroke-width: 1.0;"/><line style="stroke: #A80036; stroke-width: 1.5;" x1="342" x2="342" y1="515.3516" y2="535.3516"/><polygon fill="#A80036" points="338,525.3516,342,535.3516,346,525.3516,342,529.3516" style="stroke: #A80036; stroke-width: 1.0;"/><line style="stroke: #A80036; stroke-width: 1.5;" x1="470" x2="470" y1="515.3516" y2="569.918"/><polygon fill="#A80036" points="466,559.918,470,569.918,474,559.918,470,563.918" style="stroke: #A80036; stroke-width: 1.0;"/><line style="stroke: #A80036; stroke-width: 1.5;" x1="588.5" x2="588.5" y1="515.3516" y2="569.918"/><polygon fill="#A80036" points="584.5,559.918,588.5,569.918,592.5,559.918,588.5,563.918" style="stroke: #A80036; stroke-width: 1.0;"/><line style="stroke: #A80036; stroke-width: 1.5;" x1="342" x2="342" y1="638.6172" y2="658.6172"/><polygon fill="#A80036" points="338,648.6172,342,658.6172,346,648.6172,342,652.6172" style="stroke: #A80036; stroke-width: 1.0;"/><line style="stroke: #A80036; stroke-width: 1.5;" x1="470" x2="470" y1="604.0508" y2="658.6172"/><polygon fill="#A80036" points="466,648.6172,470,658.6172,474,648.6172,470,652.6172" style="stroke: #A80036; stroke-width: 1.0;"/><line style="stroke: #A80036; stroke-width: 1.5;" x1="588.5" x2="588.5" y1="604.0508" y2="658.6172"/><polygon fill="#A80036" points="584.5,648.6172,588.5,658.6172,592.5,648.6172,588.5,652.6172" style="stroke: #A80036; stroke-width: 1.0;"/><line style="stroke: #A80036; stroke-width: 1.5;" x1="460.5" x2="460.5" y1="489.3516" y2="509.3516"/><polygon fill="#A80036" points="456.5,499.3516,460.5,509.3516,464.5,499.3516,460.5,503.3516" style="stroke: #A80036; stroke-width: 1.0;"/><line style="stroke: #A80036; stroke-width: 1.5;" x1="221" x2="221" y1="690.6172" y2="710.6172"/><polygon fill="#A80036" points="217,700.6172,221,710.6172,225,700.6172,221,704.6172" style="stroke: #A80036; stroke-width: 1.0;"/><line style="stroke: #A80036; stroke-width: 1.5;" x1="351" x2="351" y1="690.6172" y2="710.6172"/><polygon fill="#A80036" points="347,700.6172,351,710.6172,355,700.6172,351,704.6172" style="stroke: #A80036; stroke-width: 1.0;"/><line style="stroke: #A80036; stroke-width: 1.5;" x1="547.5" x2="547.5" y1="690.6172" y2="710.6172"/><polygon fill="#A80036" points="543.5,700.6172,547.5,710.6172,551.5,700.6172,547.5,704.6172" style="stroke: #A80036; stroke-width: 1.0;"/><line style="stroke: #A80036; stroke-width: 1.5;" x1="709" x2="709" y1="690.6172" y2="710.6172"/><polygon fill="#A80036" points="705,700.6172,709,710.6172,713,700.6172,709,704.6172" style="stroke: #A80036; stroke-width: 1.0;"/><line style="stroke: #A80036; stroke-width: 1.5;" x1="221" x2="221" y1="744.75" y2="764.75"/><polygon fill="#A80036" points="217,754.75,221,764.75,225,754.75,221,758.75" style="stroke: #A80036; stroke-width: 1.0;"/><line style="stroke: #A80036; stroke-width: 1.5;" x1="351" x2="351" y1="744.75" y2="764.75"/><polygon fill="#A80036" points="347,754.75,351,764.75,355,754.75,351,758.75" style="stroke: #A80036; stroke-width: 1.0;"/><line style="stroke: #A80036; stroke-width: 1.5;" x1="547.5" x2="547.5" y1="744.75" y2="764.75"/><polygon fill="#A80036" points="543.5,754.75,547.5,764.75,551.5,754.75,547.5,758.75" style="stroke: #A80036; stroke-width: 1.0;"/><line style="stroke: #A80036; stroke-width: 1.5;" x1="709" x2="709" y1="744.75" y2="764.75"/><polygon fill="#A80036" points="705,754.75,709,764.75,713,754.75,709,758.75" style="stroke: #A80036; stroke-width: 1.0;"/><line style="stroke: #A80036; stroke-width: 1.5;" x1="460.5" x2="460.5" y1="664.6172" y2="684.6172"/><polygon fill="#A80036" points="456.5,674.6172,460.5,684.6172,464.5,674.6172,460.5,678.6172" style="stroke: #A80036; stroke-width: 1.0;"/><line style="stroke: #A80036; stroke-width: 1.5;" x1="381" x2="381" y1="796.75" y2="816.75"/><polygon fill="#A80036" points="377,806.75,381,816.75,385,806.75,381,810.75" style="stroke: #A80036; stroke-width: 1.0;"/><line style="stroke: #A80036; stroke-width: 1.5;" x1="536" x2="536" y1="796.75" y2="816.75"/><polygon fill="#A80036" points="532,806.75,536,816.75,540,806.75,536,810.75" style="stroke: #A80036; stroke-width: 1.0;"/><line style="stroke: #A80036; stroke-width: 1.5;" x1="381" x2="381" y1="850.8828" y2="870.8828"/><polygon fill="#A80036" points="377,860.8828,381,870.8828,385,860.8828,381,864.8828" style="stroke: #A80036; stroke-width: 1.0;"/><line style="stroke: #A80036; stroke-width: 1.5;" x1="536" x2="536" y1="850.8828" y2="870.8828"/><polygon fill="#A80036" points="532,860.8828,536,870.8828,540,860.8828,536,864.8828" style="stroke: #A80036; stroke-width: 1.0;"/><line style="stroke: #A80036; stroke-width: 1.5;" x1="460.5" x2="460.5" y1="770.75" y2="790.75"/><polygon fill="#A80036" points="456.5,780.75,460.5,790.75,464.5,780.75,460.5,784.75" style="stroke: #A80036; stroke-width: 1.0;"/><line style="stroke: #A80036; stroke-width: 1.5;" x1="460.5" x2="460.5" y1="876.8828" y2="896.8828"/><polygon fill="#A80036" points="456.5,886.8828,460.5,896.8828,464.5,886.8828,460.5,890.8828" style="stroke: #A80036; stroke-width: 1.0;"/><line style="stroke: #A80036; stroke-width: 1.5;" x1="357.5" x2="357.5" y1="957.0156" y2="977.0156"/><polygon fill="#A80036" points="353.5,967.0156,357.5,977.0156,361.5,967.0156,357.5,971.0156" style="stroke: #A80036; stroke-width: 1.0;"/><line style="stroke: #A80036; stroke-width: 1.5;" x1="476.5" x2="476.5" y1="957.0156" y2="977.0156"/><polygon fill="#A80036" points="472.5,967.0156,476.5,977.0156,480.5,967.0156,476.5,971.0156" style="stroke: #A80036; stroke-width: 1.0;"/><line style="stroke: #A80036; stroke-width: 1.5;" x1="579.5" x2="579.5" y1="957.0156" y2="977.0156"/><polygon fill="#A80036" points="575.5,967.0156,579.5,977.0156,583.5,967.0156,579.5,971.0156" style="stroke: #A80036; stroke-width: 1.0;"/><line style="stroke: #A80036; stroke-width: 1.5;" x1="357.5" x2="357.5" y1="1011.1484" y2="1031.1484"/><polygon fill="#A80036" points="353.5,1021.1484,357.5,1031.1484,361.5,1021.1484,357.5,1025.1484" style="stroke: #A80036; stroke-width: 1.0;"/><line style="stroke: #A80036; stroke-width: 1.5;" x1="476.5" x2="476.5" y1="1011.1484" y2="1031.1484"/><polygon fill="#A80036" points="472.5,1021.1484,476.5,1031.1484,480.5,1021.1484,476.5,1025.1484" style="stroke: #A80036; stroke-width: 1.0;"/><line style="stroke: #A80036; stroke-width: 1.5;" x1="579.5" x2="579.5" y1="1011.1484" y2="1031.1484"/><polygon fill="#A80036" points="575.5,1021.1484,579.5,1031.1484,583.5,1021.1484,579.5,1025.1484" style="stroke: #A80036; stroke-width: 1.0;"/><line style="stroke: #A80036; stroke-width: 1.5;" x1="460.5" x2="460.5" y1="931.0156" y2="951.0156"/><polygon fill="#A80036" points="456.5,941.0156,460.5,951.0156,464.5,941.0156,460.5,945.0156" style="stroke: #A80036; stroke-width: 1.0;"/><line style="stroke: #A80036; stroke-width: 1.5;" x1="406.5" x2="406.5" y1="1063.1484" y2="1083.1484"/><polygon fill="#A80036" points="402.5,1073.1484,406.5,1083.1484,410.5,1073.1484,406.5,1077.1484" style="stroke: #A80036; stroke-width: 1.0;"/><line style="stroke: #A80036; stroke-width: 1.5;" x1="509.5" x2="509.5" y1="1063.1484" y2="1083.1484"/><polygon fill="#A80036" points="505.5,1073.1484,509.5,1083.1484,513.5,1073.1484,509.5,1077.1484" style="stroke: #A80036; stroke-width: 1.0;"/><line style="stroke: #A80036; stroke-width: 1.5;" x1="406.5" x2="406.5" y1="1117.2813" y2="1137.2813"/><polygon fill="#A80036" points="402.5,1127.2813,406.5,1137.2813,410.5,1127.2813,406.5,1131.2813" style="stroke: #A80036; stroke-width: 1.0;"/><line style="stroke: #A80036; stroke-width: 1.5;" x1="509.5" x2="509.5" y1="1117.2813" y2="1137.2813"/><polygon fill="#A80036" points="505.5,1127.2813,509.5,1137.2813,513.5,1127.2813,509.5,1131.2813" style="stroke: #A80036; stroke-width: 1.0;"/><line style="stroke: #A80036; stroke-width: 1.5;" x1="460.5" x2="460.5" y1="1037.1484" y2="1057.1484"/><polygon fill="#A80036" points="456.5,1047.1484,460.5,1057.1484,464.5,1047.1484,460.5,1051.1484" style="stroke: #A80036; stroke-width: 1.0;"/><line style="stroke: #A80036; stroke-width: 1.5;" x1="460.5" x2="460.5" y1="1143.2813" y2="1163.2813"/><polygon fill="#A80036" points="456.5,1153.2813,460.5,1163.2813,464.5,1153.2813,460.5,1157.2813" style="stroke: #A80036; stroke-width: 1.0;"/><line style="stroke: #A80036; stroke-width: 1.5;" x1="460.5" x2="460.5" y1="1197.4141" y2="1217.4141"/><polygon fill="#A80036" points="456.5,1207.4141,460.5,1217.4141,464.5,1207.4141,460.5,1211.4141" style="stroke: #A80036; stroke-width: 1.0;"/><line style="stroke: #A80036; stroke-width: 1.5;" x1="460.5" x2="460.5" y1="1251.5469" y2="1271.5469"/><polygon fill="#A80036" points="456.5,1261.5469,460.5,1271.5469,464.5,1261.5469,460.5,1265.5469" style="stroke: #A80036; stroke-width: 1.0;"/><line style="stroke: #A80036; stroke-width: 1.5;" x1="659.5" x2="659.5" y1="1385.8125" y2="1420.8125"/><polygon fill="#A80036" points="655.5,1410.8125,659.5,1420.8125,663.5,1410.8125,659.5,1414.8125" style="stroke: #A80036; stroke-width: 1.0;"/><line style="stroke: #A80036; stroke-width: 1.5;" x1="83.5" x2="83.5" y1="1331.6797" y2="1386.2461"/><polygon fill="#A80036" points="79.5,1376.2461,83.5,1386.2461,87.5,1376.2461,83.5,1380.2461" style="stroke: #A80036; stroke-width: 1.0;"/><line style="stroke: #A80036; stroke-width: 1.5;" x1="249.5" x2="249.5" y1="1331.6797" y2="1386.2461"/><polygon fill="#A80036" points="245.5,1376.2461,249.5,1386.2461,253.5,1376.2461,249.5,1380.2461" style="stroke: #A80036; stroke-width: 1.0;"/><line style="stroke: #A80036; stroke-width: 1.5;" x1="453" x2="453" y1="1331.6797" y2="1386.2461"/><polygon fill="#A80036" points="449,1376.2461,453,1386.2461,457,1376.2461,453,1380.2461" style="stroke: #A80036; stroke-width: 1.0;"/><line style="stroke: #A80036; stroke-width: 1.5;" x1="659.5" x2="659.5" y1="1331.6797" y2="1351.6797"/><polygon fill="#A80036" points="655.5,1341.6797,659.5,1351.6797,663.5,1341.6797,659.5,1345.6797" style="stroke: #A80036; stroke-width: 1.0;"/><line style="stroke: #A80036; stroke-width: 1.5;" x1="834.5" x2="834.5" y1="1331.6797" y2="1386.2461"/><polygon fill="#A80036" points="830.5,1376.2461,834.5,1386.2461,838.5,1376.2461,834.5,1380.2461" style="stroke: #A80036; stroke-width: 1.0;"/><line style="stroke: #A80036; stroke-width: 1.5;" x1="83.5" x2="83.5" y1="1420.3789" y2="1474.9453"/><polygon fill="#A80036" points="79.5,1464.9453,83.5,1474.9453,87.5,1464.9453,83.5,1468.9453" style="stroke: #A80036; stroke-width: 1.0;"/><line style="stroke: #A80036; stroke-width: 1.5;" x1="249.5" x2="249.5" y1="1420.3789" y2="1474.9453"/><polygon fill="#A80036" points="245.5,1464.9453,249.5,1474.9453,253.5,1464.9453,249.5,1468.9453" style="stroke: #A80036; stroke-width: 1.0;"/><line style="stroke: #A80036; stroke-width: 1.5;" x1="453" x2="453" y1="1420.3789" y2="1474.9453"/><polygon fill="#A80036" points="449,1464.9453,453,1474.9453,457,1464.9453,453,1468.9453" style="stroke: #A80036; stroke-width: 1.0;"/><line style="stroke: #A80036; stroke-width: 1.5;" x1="659.5" x2="659.5" y1="1454.9453" y2="1474.9453"/><polygon fill="#A80036" points="655.5,1464.9453,659.5,1474.9453,663.5,1464.9453,659.5,1468.9453" style="stroke: #A80036; stroke-width: 1.0;"/><line style="stroke: #A80036; stroke-width: 1.5;" x1="834.5" x2="834.5" y1="1420.3789" y2="1474.9453"/><polygon fill="#A80036" points="830.5,1464.9453,834.5,1474.9453,838.5,1464.9453,834.5,1468.9453" style="stroke: #A80036; stroke-width: 1.0;"/><line style="stroke: #A80036; stroke-width: 1.5;" x1="460.5" x2="460.5" y1="1305.6797" y2="1325.6797"/><polygon fill="#A80036" points="456.5,1315.6797,460.5,1325.6797,464.5,1315.6797,460.5,1319.6797" style="stroke: #A80036; stroke-width: 1.0;"/><line style="stroke: #A80036; stroke-width: 1.5;" x1="460.5" x2="460.5" y1="1480.9453" y2="1500.9453"/><polygon fill="#A80036" points="456.5,1490.9453,460.5,1500.9453,464.5,1490.9453,460.5,1494.9453" style="stroke: #A80036; stroke-width: 1.0;"/><line style="stroke: #A80036; stroke-width: 1.5;" x1="460.5" x2="460.5" y1="1535.0781" y2="1555.0781"/><polygon fill="#A80036" points="456.5,1545.0781,460.5,1555.0781,464.5,1545.0781,460.5,1549.0781" style="stroke: #A80036; stroke-width: 1.0;"/><!--MD5=[6b3c49c2e61fa48691f9bfca8bd1a628]
@startuml
  title A Roadmap for Programming Beginners

  'Subject color
  !$techcolour = "#Cyan"
  !$metacolour = "#Pink"

  'Procedure for inserting subjects
  !procedure $subject($name, $url="", $meta="no")

    !$colour="#Cyan"
    !if ($meta == "yes")
      !$colour="#Pink"
    !endif

    !if ($url == "")
      !$subj=$name
    !else
      !$temp=$url + " " + $name
      !$subj=[[$temp]]
    !endif

    $colour:$subj;

  !endprocedure

  'Roadmap beginning
  start
  
  'Roadmap legend
  floating note right $techcolour
    Programming Concepts
  end note
  floating note right $metacolour
    General Programming Stuff
  end note

  'Subjects
  fork
    $subject("Basic Input/Output")
  fork again
    $subject("Variables", "https://www.khanacademy.org/computing/ap-computer-science-principles/programming-101/storing-variables/a/assigning-variables")
  fork again
    $subject("Basic Types")
  fork again
    $subject("Naming Convention")
  fork again
    $subject("Comments", "https://en.wikipedia.org/wiki/Comment_(computer_programming)", "yes")
  endfork
  fork
    $subject("Conditionals", "https://en.wikipedia.org/wiki/Conditional_(computer_programming)")
  fork again
    $subject("Indentation", "https://developers.slashdot.org/story/20/06/20/0358229/david-heinemeier-hansson-explains-what-it-takes-to-write-great-code")
  endfork
  fork
    $subject("Loops")
  fork again
    $subject("Vectors")
    $subject("Matrices")
  fork again
    $subject("Records (User Types)")
  endfork
  fork
    $subject("Functions")
    $subject("Macros")
  fork again
    $subject("Parameter Passing")
  fork again
    $subject("Scope")
  endfork
  fork
    $subject("Recursion", "https://en.wikipedia.org/wiki/Recursion_(computer_science)")
  fork again
    $subject("Dynamic Allocation")
  fork again
    $subject("Sorting and Searching Algorithms")
  fork again
    $subject("Debug", "https://en.wikipedia.org/wiki/Debugging", "yes")
  endfork
  fork
    $subject("Files Input/Output")
  fork again
    $subject("Exception Handling")
  endfork
  $subject("Lists, Stacks, Trees, Graphs")
  fork
    $subject("Abstract Data Types")
  fork again 
    $subject("APIs")
  fork again 
    $subject("Documentation", "https://www.doxygen.nl/index.html", "yes") 
  endfork 
  fork 
    $subject("Libraries")
  fork again 
    $subject("Versioning", "https://git-scm.com/book/en/v2/Getting-Started-About-Version-Control", "yes")
  endfork 
  $subject("Dictionaries")
  $subject("Iterators")
  $subject("Regular Expressions", "https://regexr.com/")
  fork
    $subject("GUI Programming")
  fork again 
    $subject("Functional Programming")
  fork again 
    $subject("Object Oriented Programming")
  fork again
    $subject("Coroutine", "https://en.wikipedia.org/wiki/Coroutine")
    $subject("Concurrent Programming")
  fork again 
    $subject("Logic Programming")
  endfork
  $subject("Patterns")
  $subject("And so on ...")
@enduml

@startuml
  title A Roadmap for Programming Beginners



  start
  
  floating note right #Cyan
    Programming Concepts
  end note
  floating note right #Pink
    General Programming Stuff
  end note

  fork
    


    #Cyan:Basic Input/Output;

  fork again
    


    #Cyan:[[https://www.khanacademy.org/computing/ap-computer-science-principles/programming-101/storing-variables/a/assigning-variables Variables]];

  fork again
    


    #Cyan:Basic Types;

  fork again
    


    #Cyan:Naming Convention;

  fork again
    


    #Pink:[[https://en.wikipedia.org/wiki/Comment_(computer_programming) Comments]];

  endfork
  fork
    


    #Cyan:[[https://en.wikipedia.org/wiki/Conditional_(computer_programming) Conditionals]];

  fork again
    


    #Cyan:[[https://developers.slashdot.org/story/20/06/20/0358229/david-heinemeier-hansson-explains-what-it-takes-to-write-great-code Indentation]];

  endfork
  fork
    


    #Cyan:Loops;

  fork again
    


    #Cyan:Vectors;

    


    #Cyan:Matrices;

  fork again
    


    #Cyan:Records (User Types);

  endfork
  fork
    


    #Cyan:Functions;

    


    #Cyan:Macros;

  fork again
    


    #Cyan:Parameter Passing;

  fork again
    


    #Cyan:Scope;

  endfork
  fork
    


    #Cyan:[[https://en.wikipedia.org/wiki/Recursion_(computer_science) Recursion]];

  fork again
    


    #Cyan:Dynamic Allocation;

  fork again
    


    #Cyan:Sorting and Searching Algorithms;

  fork again
    


    #Pink:[[https://en.wikipedia.org/wiki/Debugging Debug]];

  endfork
  fork
    


    #Cyan:Files Input/Output;

  fork again
    


    #Cyan:Exception Handling;

  endfork
  


    #Cyan:Lists, Stacks, Trees, Graphs;

  fork
    


    #Cyan:Abstract Data Types;

  fork again 
    


    #Cyan:APIs;

  fork again 
    


    #Pink:[[https://www.doxygen.nl/index.html Documentation]];
 
  endfork 
  fork 
    


    #Cyan:Libraries;

  fork again 
    


    #Pink:[[https://git-scm.com/book/en/v2/Getting-Started-About-Version-Control Versioning]];

  endfork 
  


    #Cyan:Dictionaries;

  


    #Cyan:Iterators;

  


    #Cyan:[[https://regexr.com/ Regular Expressions]];

  fork
    


    #Cyan:GUI Programming;

  fork again 
    


    #Cyan:Functional Programming;

  fork again 
    


    #Cyan:Object Oriented Programming;

  fork again
    


    #Cyan:[[https://en.wikipedia.org/wiki/Coroutine Coroutine]];

    


    #Cyan:Concurrent Programming;

  fork again 
    


    #Cyan:Logic Programming;

  endfork
  


    #Cyan:Patterns;

  


    #Cyan:And so on ...;

@enduml

PlantUML version 1.2020.13(Sat Jun 13 09:26:38 BRT 2020)
(GPL source distribution)
Java Runtime: Java(TM) SE Runtime Environment
JVM: Java HotSpot(TM) 64-Bit Server VM
Default Encoding: UTF-8
Language: pt
Country: BR
--></g></svg>